<?xml version="1.0" encoding="UTF-8" standalone="no"?>
<svg width="49px" height="37px" viewBox="0 0 49 37" version="1.1" xmlns="http://www.w3.org/2000/svg" xmlns:xlink="http://www.w3.org/1999/xlink">
    <!-- Generator: Sketch 43.2 (39069) - http://www.bohemiancoding.com/sketch -->
    <title>noun_27494_cc@2x</title>
    <desc>Created with Sketch.</desc>
    <defs></defs>
    <g id="Mobile-Prototype" stroke="none" stroke-width="1" fill="none" fill-rule="evenodd">
        <g id="Stage-Zero-Copy-4" transform="translate(-83.000000, -447.000000)" fill-rule="nonzero" fill="#000000">
            <g id="noun_27494_cc" transform="translate(83.000000, 447.000000)">
                <path d="M31.9378579,5.81379941 L31.9378579,2.37744636 L31.9378579,1.38024616 L31.9378579,0 L17.0615613,0 L17.0615613,1.38024616 L17.0615613,2.37744636 L17.0615613,5.81379941 L0,5.81379941 L0,21 L19.3566119,21 L19.3566119,19.0597383 L29.6433881,19.0597383 L29.6433881,21 L49,21 L49,5.81379941 L31.9378579,5.81379941 Z M19.5500445,2.37744636 L29.4493747,2.37744636 L29.4493747,5.81379941 L19.5500445,5.81379941 L19.5500445,2.37744636 Z" id="Shape"></path>
                <polygon id="Shape" points="29.6433881 22 29.6433881 23.2280564 19.3566119 23.2280564 19.3566119 22 0 22 0 37 49 37 49 22"></polygon>
            </g>
        </g>
    </g>
</svg>