<?xml version="1.0" encoding="UTF-8" standalone="no"?>
<svg width="48px" height="27px" viewBox="0 0 48 27" version="1.1" xmlns="http://www.w3.org/2000/svg" xmlns:xlink="http://www.w3.org/1999/xlink">
    <!-- Generator: Sketch 43.2 (39069) - http://www.bohemiancoding.com/sketch -->
    <title>noun_981947_cc@2x</title>
    <desc>Created with Sketch.</desc>
    <defs></defs>
    <g id="Mobile-Prototype" stroke="none" stroke-width="1" fill="none" fill-rule="evenodd">
        <g id="Stage-Zero-Copy-4" transform="translate(-83.000000, -223.000000)" fill-rule="nonzero" fill="#000000">
            <g id="noun_981947_cc" transform="translate(83.000000, 223.000000)">
                <g id="Group">
                    <path d="M28.9545455,0.259418919 C28.420283,0.310244673 27.9573053,0.652087613 27.7500364,1.14877703 L17.5682182,24.5000919 C17.248134,25.2431574 17.589,26.1058872 18.3295636,26.4270527 C19.0701273,26.7482182 19.9299522,26.4062007 20.2500364,25.6631351 L30.4318545,2.31178378 C30.6462656,1.83535981 30.590382,1.28026125 30.2853449,0.856485759 C29.9803079,0.432710267 29.4726971,0.204969324 28.9545455,0.259418919 L28.9545455,0.259418919 Z M13.7500364,1.71887838 C13.4219848,1.73658087 13.1095647,1.86518096 12.8636364,2.08374324 L1.22727273,12.2999595 C0.906402442,12.5772362 0.721876587,12.9810414 0.721876587,13.4059378 C0.721876587,13.8308343 0.906402442,14.2346395 1.22727273,14.5119162 L12.8636364,24.7281324 C13.2570887,25.0730255 13.8043738,25.1803474 14.2982889,25.0094661 C14.792204,24.8385847 15.1572569,24.4156183 15.2552382,23.9007024 C15.3532195,23.3857866 15.1691533,22.8576232 14.7727273,22.5161757 L4.3864,13.4173216 L14.7727273,4.29573649 C15.2551108,3.89128945 15.4240008,3.22169186 15.1914332,2.63569494 C14.9588656,2.04969801 14.377461,1.6798891 13.7500364,1.71887838 L13.7500364,1.71887838 Z M34.0682182,1.71887838 C33.474048,1.75653164 32.9627159,2.15366279 32.7774481,2.72136772 C32.5921803,3.28907265 32.770376,3.91275098 33.2272727,4.29573649 L43.6136727,13.4173216 L33.2272727,22.5161757 C32.8308467,22.8576232 32.6467805,23.3857866 32.7447618,23.9007024 C32.8427431,24.4156183 33.207796,24.8385847 33.7017111,25.0094661 C34.1956262,25.1803474 34.7429113,25.0730255 35.1363636,24.7281324 L46.7727273,14.5119162 C47.0935976,14.2346395 47.2781234,13.8308343 47.2781234,13.4059378 C47.2781234,12.9810414 47.0935976,12.5772362 46.7727273,12.2999595 L35.1363636,2.08374324 C34.8437409,1.82287911 34.4586897,1.69135055 34.0682182,1.71887838 L34.0682182,1.71887838 Z" id="Shape"></path>
                </g>
            </g>
        </g>
    </g>
</svg>