<?xml version="1.0" encoding="UTF-8" standalone="no"?>
<svg width="59px" height="54px" viewBox="0 0 59 54" version="1.1" xmlns="http://www.w3.org/2000/svg" xmlns:xlink="http://www.w3.org/1999/xlink">
    <!-- Generator: Sketch 43.2 (39069) - http://www.bohemiancoding.com/sketch -->
    <title>noun_1129271_cc@2x</title>
    <desc>Created with Sketch.</desc>
    <defs></defs>
    <g id="Mobile-Prototype" stroke="none" stroke-width="1" fill="none" fill-rule="evenodd">
        <g id="Stage-Zero" transform="translate(-78.000000, -203.000000)" fill-rule="nonzero" fill="#000000">
            <g id="noun_1129271_cc" transform="translate(78.000000, 203.000000)">
                <path d="M11.2901235,21.5912678 L11.2901235,4.28705783 L15.7333333,4.28705783 L15.1506173,4.87364122 C14.7864198,5.24025584 14.7135802,5.82683923 15.0049383,6.26677677 L17.554321,10.1528917 C17.4814815,12.2792565 18.2098765,14.4056213 19.8123457,15.9454027 L20.0308642,16.1653714 C20.2493827,16.3853402 20.5407407,16.4586631 20.8320988,16.4586631 C21.1234568,16.4586631 21.4148148,16.3853402 21.6333333,16.1653714 L30.9567901,6.78003723 C31.3938272,6.34009969 31.3938272,5.68019338 30.9567901,5.24025584 L30.6654321,5.02028707 C29.208642,3.5538286 27.2419753,2.74727644 25.2024691,2.74727644 L24.8382716,2.74727644 L20.9777778,0.180974114 C20.5407407,-0.11231758 19.9580247,-0.0389946567 19.5938272,0.327619961 L17.9185185,2.08737013 L10.9259259,2.08737013 C9.90617284,2.08737013 9.10493827,2.89392229 9.10493827,3.92044321 L9.10493827,21.5912678 L0,21.5912678 L0,23.7909555 L0,25.9906432 L0,54 L21.2691358,54 L21.2691358,25.9906432 L56.8148148,25.9906432 L56.8148148,54 L59,54 L59,25.9906432 L59,23.7909555 L59,21.5912678 L11.2901235,21.5912678 Z M20.5407407,2.52730767 L21.9975309,3.48050567 C21.1962963,3.84712029 20.4679012,4.36038076 19.8123457,5.02028707 C19.1567901,5.68019338 18.6469136,6.41342262 18.282716,7.21997477 L17.3358025,5.7535163 L20.5407407,2.52730767 Z M13.5481481,46.5210618 L6.99259259,46.5210618 L6.99259259,44.3213741 L13.5481481,44.3213741 L13.5481481,46.5210618 Z M19.1567901,37.1357276 L2.18518519,37.1357276 L2.18518519,32.7363522 L19.0839506,32.7363522 L19.0839506,37.1357276 L19.1567901,37.1357276 Z M19.1567901,30.5366645 L2.18518519,30.5366645 L2.18518519,25.9906432 L19.0839506,25.9906432 L19.0839506,30.5366645 L19.1567901,30.5366645 Z" id="Shape"></path>
            </g>
        </g>
    </g>
</svg>