<?xml version="1.0" encoding="UTF-8" standalone="no"?>
<svg width="55px" height="57px" viewBox="0 0 55 57" version="1.1" xmlns="http://www.w3.org/2000/svg" xmlns:xlink="http://www.w3.org/1999/xlink">
    <!-- Generator: Sketch 43.2 (39069) - http://www.bohemiancoding.com/sketch -->
    <title>noun_688808_cc@2x</title>
    <desc>Created with Sketch.</desc>
    <defs></defs>
    <g id="Mobile-Prototype" stroke="none" stroke-width="1" fill="none" fill-rule="evenodd">
        <g id="Stage-Zero" transform="translate(-240.000000, -204.000000)" fill-rule="nonzero" fill="#000000">
            <g id="noun_688808_cc" transform="translate(240.000000, 204.000000)">
                <path d="M53.4371429,53.8589112 L52.1057143,53.8589112 L52.1057143,7.01871888 C52.1057143,6.15133116 51.4072785,5.44817448 50.5457143,5.44817448 L40.8314286,5.44817448 L40.8314286,1.57071322 C40.8314734,1.1501611 40.6639828,0.747159665 40.3664638,0.451954941 C40.0689447,0.156750216 39.6662552,-0.00599311838 39.2485714,0.000168819971 L15.74,0.000168819971 C14.8784358,0.000168819971 14.18,0.703325499 14.18,1.57071322 L14.18,19.1458529 L4.46571429,19.1458529 C3.60415008,19.1458529 2.90571429,19.8490096 2.90571429,20.7163973 L2.90571429,53.8531583 L1.56285714,53.8531583 C0.699714977,53.8531583 2.53765263e-16,54.5576028 0,55.4265791 C-1.26882631e-16,56.2955555 0.699714977,57 1.56285714,57 L53.4371429,57 C54.300285,57 55,56.2955555 55,55.4265791 C55,54.5576028 54.300285,53.8531583 53.4371429,53.8531583 L53.4371429,53.8589112 Z M36.6942857,10.4532061 C36.6942857,10.2609595 36.7701426,10.0765868 36.9051688,9.94064797 C37.040195,9.8047091 37.2233298,9.72833944 37.4142857,9.72833944 L40.0714286,9.72833944 C40.4690736,9.72833944 40.7914286,10.0528733 40.7914286,10.4532061 L40.7914286,13.139815 C40.792952,13.3330564 40.7177681,13.5189105 40.5825765,13.6560961 C40.4473848,13.7932818 40.2633786,13.8704406 40.0714286,13.8704346 L37.4142857,13.8704346 C37.2233298,13.8704346 37.040195,13.7940649 36.9051688,13.658126 C36.7701426,13.5221872 36.6942857,13.3378145 36.6942857,13.1455679 L36.6942857,10.4532061 Z M36.6942857,17.3049218 C36.6942857,17.1126752 36.7701426,16.9283025 36.9051688,16.7923636 C37.040195,16.6564248 37.2233298,16.5800551 37.4142857,16.5800551 L40.0714286,16.5800551 C40.4690736,16.5800551 40.7914286,16.904589 40.7914286,17.3049218 L40.7914286,19.9972836 C40.7914286,20.3976164 40.4690736,20.7221502 40.0714286,20.7221502 L37.4142857,20.7221502 C37.0166407,20.7221502 36.6942857,20.3976164 36.6942857,19.9972836 L36.6942857,17.3049218 Z M36.6942857,24.1566374 C36.6942857,23.9643909 36.7701426,23.7800182 36.9051688,23.6440793 C37.040195,23.5081405 37.2233298,23.4317708 37.4142857,23.4317708 L40.0714286,23.4317708 C40.4690736,23.4317708 40.7914286,23.7563046 40.7914286,24.1566374 L40.7914286,26.8489993 C40.7914286,27.0412459 40.7155716,27.2256185 40.5805455,27.3615574 C40.4455193,27.4974963 40.2623844,27.5738659 40.0714286,27.5738659 L37.4142857,27.5738659 C37.0166407,27.5738659 36.6942857,27.2493321 36.6942857,26.8489993 L36.6942857,24.1566374 Z M36.6942857,31.0083531 C36.6942857,30.8161065 36.7701426,30.6317339 36.9051688,30.495795 C37.040195,30.3598561 37.2233298,30.2834865 37.4142857,30.2834865 L40.0714286,30.2834865 C40.4690736,30.2834865 40.7914286,30.6080203 40.7914286,31.0083531 L40.7914286,33.6777033 C40.7976185,33.8739052 40.7245031,34.0642456 40.5888002,34.2052029 C40.4530973,34.3461602 40.2664115,34.4256805 40.0714286,34.4255816 L37.4142857,34.4255816 C37.2193028,34.4256805 37.032617,34.3461602 36.8969141,34.2052029 C36.7612112,34.0642456 36.6880958,33.8739052 36.6942857,33.6777033 L36.6942857,31.0083531 Z M36.6942857,37.8600688 C36.6927623,37.6668274 36.7679462,37.4809733 36.9031378,37.3437877 C37.0383295,37.206602 37.2223356,37.1294432 37.4142857,37.1294492 L40.0714286,37.1294492 C40.2623844,37.1294492 40.4455193,37.2058189 40.5805455,37.3417578 C40.7155716,37.4776966 40.7914286,37.6620693 40.7914286,37.8543159 L40.7914286,40.5466777 C40.792952,40.7399191 40.7177681,40.9257732 40.5825765,41.0629588 C40.4473848,41.2001445 40.2633786,41.2773034 40.0714286,41.2772973 L37.4142857,41.2772973 C37.0166407,41.2772973 36.6942857,40.9527634 36.6942857,40.5524306 L36.6942857,37.8600688 Z M14.18,24.1566374 C14.178281,23.9583052 14.2573607,23.7679267 14.3988092,23.6298703 C14.5402578,23.4918139 14.7317188,23.4181397 14.9285714,23.4260179 L17.6028571,23.4260179 C18.0005022,23.4260179 18.3228571,23.7505517 18.3228571,24.1508845 L18.3228571,26.8432464 C18.3228571,27.2435792 18.0005022,27.568113 17.6028571,27.568113 L14.9285714,27.568113 C14.5309264,27.568113 14.2085714,27.2435792 14.2085714,26.8432464 L14.18,24.1566374 Z M18.2942857,31.0083531 L18.2942857,33.6777033 C18.2942857,34.0780361 17.9719307,34.40257 17.5742857,34.40257 L14.9285714,34.40257 C14.7327149,34.4104008 14.5421528,34.3375023 14.4008823,34.2007055 C14.2596119,34.0639086 14.1798456,33.8750391 14.18,33.6777033 L14.18,31.0083531 C14.178281,30.8100209 14.2573607,30.6196424 14.3988092,30.481586 C14.5402578,30.3435295 14.7317188,30.2698554 14.9285714,30.2777336 L17.6028571,30.2777336 C17.9915266,30.2932585 18.2976786,30.6167636 18.2942857,31.0083531 L18.2942857,31.0083531 Z M14.18,37.8600688 C14.178281,37.6617366 14.2573607,37.471358 14.3988092,37.3333016 C14.5402578,37.1952452 14.7317188,37.1215711 14.9285714,37.1294492 L17.6028571,37.1294492 C17.793813,37.1294492 17.9769478,37.2058189 18.111974,37.3417578 C18.2470002,37.4776966 18.3228571,37.6620693 18.3228571,37.8543159 L18.3228571,40.5466777 C18.3228571,40.7389243 18.2470002,40.923297 18.111974,41.0592358 C17.9769478,41.1951747 17.793813,41.2715444 17.6028571,41.2715444 L14.9285714,41.2715444 C14.7376156,41.2715444 14.5544807,41.1951747 14.4194545,41.0592358 C14.2844284,40.923297 14.2085714,40.7389243 14.2085714,40.5466777 L14.18,37.8600688 Z M11.1971429,40.5524306 C11.1971429,40.9527634 10.8747879,41.2772973 10.4771429,41.2772973 L7.80285714,41.2772973 C7.40521212,41.2772973 7.08285714,40.9527634 7.08285714,40.5524306 L7.08285714,37.8600688 C7.08133373,37.6668274 7.15651759,37.4809733 7.29170926,37.3437877 C7.42690092,37.206602 7.61090707,37.1294432 7.80285714,37.1294492 L10.4771429,37.1294492 C10.6680987,37.1294492 10.8512335,37.2058189 10.9862597,37.3417578 C11.1212859,37.4776966 11.1971429,37.6620693 11.1971429,37.8543159 L11.1971429,40.5524306 Z M11.1971429,33.7007149 C11.1971429,34.1010477 10.8747879,34.4255816 10.4771429,34.4255816 L7.80285714,34.4255816 C7.60787423,34.4256805 7.42118842,34.3461602 7.28548551,34.2052029 C7.1497826,34.0642456 7.07666718,33.8739052 7.08285714,33.6777033 L7.08285714,31.0083531 C7.08285714,30.6080203 7.40521212,30.2834865 7.80285714,30.2834865 L10.4771429,30.2834865 C10.8747879,30.2834865 11.1971429,30.6080203 11.1971429,31.0083531 L11.1971429,33.7007149 Z M11.1971429,26.8489993 C11.1971429,27.2493321 10.8747879,27.5738659 10.4771429,27.5738659 L7.80285714,27.5738659 C7.40521212,27.5738659 7.08285714,27.2493321 7.08285714,26.8489993 L7.08285714,24.1566374 C7.08285714,23.7563046 7.40521212,23.4317708 7.80285714,23.4317708 L10.4771429,23.4317708 C10.8747879,23.4317708 11.1971429,23.7563046 11.1971429,24.1566374 L11.1971429,26.8489993 Z M19.8657143,53.8876758 L12.6142857,53.8876758 L12.6142857,44.7175374 C12.6142857,44.3108501 12.9417574,43.9811649 13.3457143,43.9811649 L19.1342857,43.9811649 C19.5382426,43.9811649 19.8657143,44.3108501 19.8657143,44.7175374 L19.8657143,53.8876758 Z M25.3971429,40.5811952 C25.3971429,40.981528 25.0747879,41.3060618 24.6771429,41.3060618 L22.0028571,41.3060618 C21.6052121,41.3060618 21.2828571,40.981528 21.2828571,40.5811952 L21.2828571,37.8600688 C21.2813337,37.6668274 21.3565176,37.4809733 21.4917093,37.3437877 C21.6269009,37.206602 21.8109071,37.1294432 22.0028571,37.1294492 L24.6771429,37.1294492 C24.8680987,37.1294492 25.0512335,37.2058189 25.1862597,37.3417578 C25.3212859,37.4776966 25.3971429,37.6620693 25.3971429,37.8543159 L25.3971429,40.5811952 Z M25.3971429,33.7294795 C25.3971429,34.1298123 25.0747879,34.4543461 24.6771429,34.4543461 L22.0028571,34.4543461 C21.8016568,34.4564721 21.6087522,34.37374 21.4708829,34.2261954 C21.3330136,34.0786508 21.2627595,33.8797565 21.2771429,33.6777033 L21.2771429,31.0083531 C21.2771429,30.6080203 21.5994978,30.2834865 21.9971429,30.2834865 L24.6714286,30.2834865 C25.0690736,30.2834865 25.3914286,30.6080203 25.3914286,31.0083531 L25.3971429,33.7294795 Z M25.3971429,26.8777638 C25.3971429,27.2780966 25.0747879,27.6026305 24.6771429,27.6026305 L22.0028571,27.6026305 C21.6052121,27.6026305 21.2828571,27.2780966 21.2828571,26.8777638 L21.2828571,24.1566374 C21.2828571,23.7563046 21.6052121,23.4317708 22.0028571,23.4317708 L24.6771429,23.4317708 C25.0747879,23.4317708 25.3971429,23.7563046 25.3971429,24.1566374 L25.3971429,26.8777638 Z M33.7114286,40.5466777 C33.7114286,40.7389243 33.6355716,40.923297 33.5005455,41.0592358 C33.3655193,41.1951747 33.1823844,41.2715444 32.9914286,41.2715444 L30.3171429,41.2715444 C30.126187,41.2715444 29.9430522,41.1951747 29.808026,41.0592358 C29.6729998,40.923297 29.5971429,40.7389243 29.5971429,40.5466777 L29.5971429,37.8600688 C29.5956194,37.6668274 29.6708033,37.4809733 29.805995,37.3437877 C29.9411866,37.206602 30.1251928,37.1294432 30.3171429,37.1294492 L32.9857143,37.1294492 C33.1766702,37.1294492 33.359805,37.2058189 33.4948312,37.3417578 C33.6298574,37.4776966 33.7057143,37.6620693 33.7057143,37.8543159 L33.7114286,40.5466777 Z M33.7114286,33.694962 C33.712966,33.8892048 33.6370008,34.0759414 33.5005683,34.2132961 C33.3641358,34.3506508 33.1786529,34.4271294 32.9857143,34.4255816 L30.3171429,34.4255816 C30.1211704,34.4272472 29.9329914,34.3484152 29.7960401,34.2072812 C29.6590887,34.0661472 29.5852,33.8749077 29.5914286,33.6777033 L29.5914286,31.0083531 C29.5914286,30.6080203 29.9137836,30.2834865 30.3114286,30.2834865 L32.9857143,30.2834865 C33.3833593,30.2834865 33.7057143,30.6080203 33.7057143,31.0083531 L33.7114286,33.694962 Z M33.7114286,26.8432464 C33.7114286,27.2435792 33.3890736,27.568113 32.9914286,27.568113 L30.3171429,27.568113 C29.9194978,27.568113 29.5971429,27.2435792 29.5971429,26.8432464 L29.5971429,24.1566374 C29.5971429,23.7563046 29.9194978,23.4317708 30.3171429,23.4317708 L32.9857143,23.4317708 C33.3833593,23.4317708 33.7057143,23.7563046 33.7057143,24.1566374 L33.7114286,26.8432464 Z M33.7114286,19.9915307 C33.7114286,20.3918635 33.3890736,20.7163973 32.9914286,20.7163973 L30.3171429,20.7163973 C29.9194978,20.7163973 29.5971429,20.3918635 29.5971429,19.9915307 L29.5971429,17.3049218 C29.5971429,17.1126752 29.6729998,16.9283025 29.808026,16.7923636 C29.9430522,16.6564248 30.126187,16.5800551 30.3171429,16.5800551 L32.9857143,16.5800551 C33.3833593,16.5800551 33.7057143,16.904589 33.7057143,17.3049218 L33.7114286,19.9915307 Z M33.7114286,13.139815 C33.7114286,13.5401478 33.3890736,13.8646817 32.9914286,13.8646817 L30.3171429,13.8646817 C29.9194978,13.8646817 29.5971429,13.5401478 29.5971429,13.139815 L29.5971429,10.4532061 C29.5971429,10.0528733 29.9194978,9.72833944 30.3171429,9.72833944 L32.9857143,9.72833944 C33.3833593,9.72833944 33.7057143,10.0528733 33.7057143,10.4532061 L33.7114286,13.139815 Z M42.3571429,53.8589112 L35.1285714,53.8589112 L35.1285714,44.7175374 C35.1285714,44.3108501 35.4560432,43.9811649 35.86,43.9811649 L41.6428571,43.9811649 C42.0401038,43.9905409 42.357252,44.3174958 42.3571429,44.7175374 L42.3571429,53.8589112 Z M47.8885714,40.5524306 C47.8885714,40.9527634 47.5662164,41.2772973 47.1685714,41.2772973 L44.5114286,41.2772973 C44.3204727,41.2772973 44.1373379,41.2009276 44.0023117,41.0649887 C43.8672855,40.9290499 43.7914286,40.7446772 43.7914286,40.5524306 L43.7914286,37.8600688 C43.7899052,37.6668274 43.865089,37.4809733 44.0002807,37.3437877 C44.1354723,37.206602 44.3194785,37.1294432 44.5114286,37.1294492 L47.1857143,37.1294492 C47.3766702,37.1294492 47.559805,37.2058189 47.6948312,37.3417578 C47.8298574,37.4776966 47.9057143,37.6620693 47.9057143,37.8543159 L47.8885714,40.5524306 Z M47.8885714,33.7007149 C47.8885714,34.1010477 47.5662164,34.4255816 47.1685714,34.4255816 L44.5114286,34.4255816 C44.3164457,34.4256805 44.1297599,34.3461602 43.9940569,34.2052029 C43.858354,34.0642456 43.7852386,33.8739052 43.7914286,33.6777033 L43.7914286,31.0083531 C43.7914286,30.8161065 43.8672855,30.6317339 44.0023117,30.495795 C44.1373379,30.3598561 44.3204727,30.2834865 44.5114286,30.2834865 L47.1857143,30.2834865 C47.5833593,30.2834865 47.9057143,30.6080203 47.9057143,31.0083531 L47.8885714,33.7007149 Z M47.8885714,26.8489993 C47.8885714,27.2493321 47.5662164,27.5738659 47.1685714,27.5738659 L44.5114286,27.5738659 C44.3204727,27.5738659 44.1373379,27.4974963 44.0023117,27.3615574 C43.8672855,27.2256185 43.7914286,27.0412459 43.7914286,26.8489993 L43.7914286,24.1566374 C43.7914286,23.7563046 44.1137836,23.4317708 44.5114286,23.4317708 L47.1857143,23.4317708 C47.5833593,23.4317708 47.9057143,23.7563046 47.9057143,24.1566374 L47.8885714,26.8489993 Z M47.8885714,19.9972836 C47.8885714,20.3976164 47.5662164,20.7221502 47.1685714,20.7221502 L44.5114286,20.7221502 C44.3204727,20.7221502 44.1373379,20.6457806 44.0023117,20.5098417 C43.8672855,20.3739028 43.7914286,20.1895302 43.7914286,19.9972836 L43.7914286,17.3049218 C43.7914286,17.1126752 43.8672855,16.9283025 44.0023117,16.7923636 C44.1373379,16.6564248 44.3204727,16.5800551 44.5114286,16.5800551 L47.1857143,16.5800551 C47.5833593,16.5800551 47.9057143,16.904589 47.9057143,17.3049218 L47.8885714,19.9972836 Z M47.8885714,13.1455679 C47.8885714,13.5459007 47.5662164,13.8704346 47.1685714,13.8704346 L44.5114286,13.8704346 C44.3204727,13.8704346 44.1373379,13.7940649 44.0023117,13.658126 C43.8672855,13.5221872 43.7914286,13.3378145 43.7914286,13.1455679 L43.7914286,10.4532061 C43.7914286,10.0528733 44.1137836,9.72833944 44.5114286,9.72833944 L47.1857143,9.72833944 C47.5833593,9.72833944 47.9057143,10.0528733 47.9057143,10.4532061 L47.8885714,13.1455679 Z" id="Shape"></path>
            </g>
        </g>
    </g>
</svg>