<?xml version="1.0" encoding="UTF-8" standalone="no"?>
<svg width="41px" height="43px" viewBox="0 0 41 43" version="1.1" xmlns="http://www.w3.org/2000/svg" xmlns:xlink="http://www.w3.org/1999/xlink">
    <!-- Generator: Sketch 43.2 (39069) - http://www.bohemiancoding.com/sketch -->
    <title>noun_450084_cc@2x</title>
    <desc>Created with Sketch.</desc>
    <defs></defs>
    <g id="Mobile-Prototype" stroke="none" stroke-width="1" fill="none" fill-rule="evenodd">
        <g id="Stage-Zero-Copy-4" transform="translate(-250.000000, -212.000000)" fill="#000000">
            <g id="noun_450084_cc" transform="translate(246.000000, 209.000000)">
                <g id="Group" transform="translate(12.000000, 40.000000) rotate(-125.754953) translate(-12.000000, -40.000000) translate(7.000000, 33.000000)">
                    <path d="M3.93424242,0 C2.46757576,1.77436 0,6.566 0,9.38 C0,11.92996 2.24030303,14 5,14 C7.75969697,14 10,11.92996 10,9.38 C10,6.566 3.58606061,3.49664 3.93424242,0 Z" id="Shape"></path>
                </g>
                <g id="Group" transform="translate(10.500000, 40.000000) rotate(-125.754953) translate(-10.500000, -40.000000) translate(5.000000, 32.000000)" fill-rule="nonzero">
                    <path d="M9.81058974,13.6082857 C9.68394872,13.7822857 9.54912821,13.9497143 9.40358974,14.108 C9.06879487,14.4722857 8.68492308,14.7894286 8.26523077,15.0477143 C7.83905128,15.3102857 7.37676923,15.5114286 6.89558974,15.6434286 C6.15774359,15.846 5.37702564,15.8845714 4.62282051,15.758 C4.19015385,15.6851429 3.76651282,15.5577143 3.36487179,15.3797143 C2.75620513,15.1097143 2.1994359,14.7237143 1.72953846,14.248 C1.29066667,13.8031429 0.928794872,13.2811429 0.665923077,12.7111429 C0.366384615,12.0617143 0.197717949,11.3531429 0.170923077,10.6368571 C0.158512821,10.3062857 0.176282051,9.97514286 0.211538462,9.64657143 C0.256666667,9.22771429 0.330846154,8.81228571 0.422512821,8.40142857 C0.527435897,7.93142857 0.655769231,7.46685714 0.799615385,7.00771429 C0.958410256,6.50057143 1.13638462,5.99971429 1.32846154,5.50457143 C1.68187179,4.59428571 2.08266667,3.702 2.52774359,2.83342857 C2.72630769,2.44571429 2.93389744,2.06285714 3.15389744,1.68714286 C3.33215385,1.38171429 3.51858974,1.08114286 3.718,0.789428571 C3.77666667,0.703428571 3.83646154,0.618571429 3.89766667,0.534857143 C3.93123077,0.488857143 3.96394872,0.441428571 4.00146154,0.398857143 C4.06238462,0.33 4.13684615,0.273714286 4.21948718,0.234285714 C4.38561538,0.155428571 4.58023077,0.148285714 4.7514359,0.214857143 C4.81969231,0.241428571 4.8834359,0.279142857 4.93984615,0.326 C4.99625641,0.373142857 5.04476923,0.429142857 5.08369231,0.492 C5.13220513,0.570285714 5.16464103,0.658285714 5.17902564,0.749714286 C5.18664103,0.798285714 5.18551282,0.810857143 5.18720513,0.86 C5.18438462,0.923428571 5.17902564,0.986285714 5.17620513,1.04971429 C5.17253846,1.16885714 5.17620513,1.288 5.18889744,1.40685714 C5.24671795,1.95628571 5.47207692,2.476 5.74538462,2.94828571 C5.96679487,3.33114286 6.22515385,3.69085714 6.49789744,4.03714286 C6.83861538,4.46971429 7.20358974,4.88228571 7.57307692,5.28914286 C7.88728205,5.63485714 8.2054359,5.97714286 8.52020513,6.32257143 C8.65333333,6.46971429 8.78561538,6.61742857 8.91705128,6.766 C9.394,7.31114286 9.86051282,7.87457143 10.23,8.502 C10.4914615,8.946 10.7044103,9.42828571 10.791,9.94057143 C10.8110256,10.0574286 10.824,10.1757143 10.829641,10.294 C10.8352821,10.4082857 10.8333077,10.5228571 10.8290769,10.6368571 C10.824,10.7742857 10.8135641,10.9114286 10.7983333,11.0477143 C10.7554615,11.4262857 10.6731026,11.8 10.5523846,12.1605714 C10.4550769,12.4514286 10.3332308,12.7337143 10.1885385,13.0034286 C10.1166154,13.1371429 10.0387692,13.2671429 9.95697436,13.3948571 C9.90930769,13.4668571 9.86079487,13.538 9.81058974,13.6082857 Z M8.76897436,12.7182857 C8.97797436,12.4091429 9.14720513,12.0745714 9.26594872,11.7191429 C9.37171795,11.4022857 9.438,11.0722857 9.46310256,10.7388571 C9.47664103,10.5588571 9.48397436,10.3762857 9.45633333,10.1974286 C9.41910256,9.95685714 9.33251282,9.72428571 9.22533333,9.50714286 C9.07330769,9.19857143 8.88489744,8.91057143 8.68182051,8.63485714 C8.36310256,8.20171429 8.00912821,7.79628571 7.65007692,7.39742857 C7.29441026,7.00228571 6.93197436,6.61371429 6.57376923,6.22085714 C6.43612821,6.06885714 6.29933333,5.91628571 6.16338462,5.76285714 C5.75779487,5.30057143 5.36292308,4.82742857 5.00894872,4.32257143 C4.66484615,3.832 4.36051282,3.31114286 4.13882051,2.75171429 L4.12923077,2.72657143 C3.79923077,3.316 3.49687179,3.92142857 3.21566667,4.536 C2.88284615,5.26285714 2.57935897,6.00428571 2.31479487,6.75971429 C2.08294872,7.42171429 1.87930769,8.09542857 1.73038462,8.78171429 C1.65789744,9.11657143 1.59838462,9.45457143 1.56171795,9.79542857 C1.53379487,10.0571429 1.51828205,10.3211429 1.52815385,10.5845714 C1.53830769,10.8545714 1.57525641,11.1237143 1.6384359,11.3862857 C1.75323077,11.8622857 1.95546154,12.3157143 2.23102564,12.7182857 C2.70571795,13.4117143 3.39420513,13.9465714 4.18,14.2271429 C4.5545641,14.3611429 4.94915385,14.4365714 5.346,14.452 C5.69884615,14.4654286 6.05338462,14.4322857 6.39748718,14.3517143 C6.77571795,14.2631429 7.14069231,14.1177143 7.47717949,13.9214286 C7.80887179,13.7282857 8.11264103,13.4862857 8.37664103,13.2057143 C8.48664103,13.0888571 8.58874359,12.9651429 8.68492308,12.8362857 C8.71341026,12.7974286 8.74133333,12.758 8.76897436,12.7182857 Z" id="Shape"></path>
                </g>
                <g id="Group" transform="translate(19.500000, 32.500000) rotate(40.714002) translate(-19.500000, -32.500000) translate(15.000000, 30.000000)">
                    <polygon id="Shape" points="9 5 0 5 2.25 0 6.75 0"></polygon>
                </g>
                <g id="Group" transform="translate(19.500000, 32.000000) rotate(40.714002) translate(-19.500000, -32.000000) translate(14.000000, 29.000000)" fill-rule="nonzero">
                    <path d="M2.78210811,0.25875 C2.82343243,0.236 2.86445946,0.21475 2.90994595,0.19825 C2.97,0.17625 3.03332432,0.16125 3.09813514,0.15375 C3.14154054,0.14875 3.15254054,0.14925 3.19594595,0.148 L7.80405405,0.148 C7.87005405,0.15 7.93397297,0.1555 7.99759459,0.1705 C8.15575676,0.20775 8.29578378,0.29125 8.39002703,0.40425 C8.41856757,0.43825 8.44056757,0.47425 8.46167568,0.512 L10.7657297,5.012 C10.7814865,5.046 10.7862432,5.05425 10.7978378,5.08925 C10.8153784,5.142 10.824,5.19675 10.824,5.2515 C10.8234054,5.431 10.725,5.60425 10.5591081,5.71725 C10.5088649,5.75175 10.4526757,5.7805 10.3929189,5.80225 C10.3331622,5.824 10.2698378,5.839 10.2053243,5.84625 C10.1625135,5.85125 10.1515135,5.85075 10.1081081,5.852 L0.891891892,5.852 C0.848486486,5.85075 0.837486486,5.85125 0.794675676,5.84625 C0.730162162,5.839 0.666837838,5.824 0.607081081,5.80225 C0.547324324,5.7805 0.491135135,5.75175 0.440891892,5.71725 C0.275,5.60425 0.176594595,5.431 0.176,5.2515 C0.176,5.19675 0.184621622,5.142 0.202162162,5.08925 C0.213756757,5.05425 0.218513514,5.046 0.23427027,5.012 L2.53832432,0.512 C2.55943243,0.47425 2.58143243,0.43825 2.60997297,0.40425 C2.63851351,0.37 2.67121622,0.3405 2.7062973,0.311 C2.74316216,0.28375 2.74316216,0.28375 2.78210811,0.25875 Z M1.97940541,4.648 L9.02059459,4.648 L7.33283784,1.352 L3.66716216,1.352 C3.10467568,2.45075 2.54189189,3.54925 1.97940541,4.648 Z" id="Shape"></path>
                </g>
                <g id="Group" transform="translate(32.500000, 16.500000) rotate(40.843565) translate(-32.500000, -16.500000) translate(30.000000, 0.000000)">
                    <polygon id="Shape" points="2.5 0 5 33 0 33"></polygon>
                </g>
                <g id="Group" transform="translate(33.500000, 16.500000) rotate(40.843565) translate(-33.500000, -16.500000) translate(30.000000, -1.000000)" fill-rule="nonzero">
                    <path d="M3.1416,0.332266667 C3.16633333,0.3192 3.19013333,0.304733333 3.2158,0.293533333 C3.26666667,0.271133333 3.32033333,0.254333333 3.3754,0.244533333 C3.43,0.234733333 3.486,0.231466667 3.542,0.234733333 C3.76693333,0.248266667 3.976,0.372866667 4.095,0.5642 C4.13886667,0.6356 4.17013333,0.714466667 4.18646667,0.7966 C4.19206667,0.823666667 4.19393333,0.851666667 4.19813333,0.8792 L6.7648,34.0125333 C6.76526667,34.0400667 6.76713333,34.0676 6.7662,34.0951333 C6.76386667,34.1497333 6.755,34.2043333 6.74006667,34.2575333 C6.67986667,34.4708 6.517,34.6467333 6.30886667,34.7232667 C6.25706667,34.7424 6.2034,34.7554667 6.1488,34.762 C6.12173333,34.7652667 6.0942,34.7652667 6.06666667,34.7666667 L0.933333333,34.7666667 C0.9058,34.7652667 0.878266667,34.7652667 0.8512,34.762 C0.7966,34.7554667 0.742933333,34.7424 0.691133333,34.7232667 C0.483,34.6467333 0.320133333,34.4708 0.259933333,34.2575333 C0.245,34.2043333 0.236133333,34.1497333 0.2338,34.0951333 C0.232866667,34.0676 0.234733333,34.0400667 0.2352,34.0125333 L2.80186667,0.8792 C2.81213333,0.805933333 2.81166667,0.786333333 2.83453333,0.7154 C2.86953333,0.609466667 2.92973333,0.5124 3.00953333,0.434 C3.02913333,0.4144 3.05153333,0.3976 3.07253333,0.378933333 C3.0954,0.363533333 3.11826667,0.347666667 3.1416,0.332266667 Z M1.6898,33.3666667 L5.3102,33.3666667 L3.5,9.99693333 C2.8966,17.7865333 2.2932,25.5766 1.6898,33.3666667 Z" id="Shape"></path>
                </g>
            </g>
        </g>
    </g>
</svg>